<svg width="54" height="12" viewBox="0 0 54 12" fill="none" xmlns="http://www.w3.org/2000/svg">
<path d="M4.98891e-05 8.52002V0.120019H3.37205C5.10005 0.120019 6.33605 1.34402 6.33605 3.06002C6.33605 4.71602 5.13605 5.96402 3.46805 5.96402C2.10005 5.96402 1.09205 4.90802 1.09205 3.32402H1.35605C1.35605 4.12802 2.35205 4.96802 3.37205 4.96802C4.44005 4.96802 5.23205 4.15202 5.23205 3.06002C5.23205 1.98002 4.45205 1.16402 3.37205 1.16402H1.09205V8.52002H4.98891e-05ZM9.92883 8.70002C8.16483 8.72402 6.89283 7.27202 6.89283 5.50802C6.89283 3.75602 8.18883 2.34002 9.95283 2.34002C11.0088 2.34002 11.8488 2.83202 12.3408 3.67202V2.52002H13.3728V8.52002H12.3408V5.50802C12.3408 4.18802 11.2848 3.32402 10.0008 3.32402C8.76483 3.32402 7.92483 4.29602 7.92483 5.50802C7.92483 6.74402 8.76483 7.70402 9.98883 7.70402C11.3328 7.70402 12.0768 6.72002 12.0768 5.50802H12.3408C12.3408 7.41602 11.3808 8.67602 9.92883 8.70002ZM15.4689 1.39202C15.0849 1.39202 14.7849 1.09202 14.7849 0.696019C14.7849 0.324019 15.0849 1.90735e-05 15.4689 1.90735e-05C15.8529 1.90735e-05 16.1649 0.324019 16.1649 0.696019C16.1649 1.09202 15.8529 1.39202 15.4689 1.39202ZM14.8569 8.52002V2.52002H15.8889V8.52002H14.8569ZM21.7053 4.87202C21.7053 3.90002 21.2373 3.30002 20.3853 3.30002C19.5693 3.30002 18.7893 4.09202 18.7893 4.99202H18.5253C18.5253 3.60002 19.4613 2.34002 20.6133 2.34002C21.8733 2.34002 22.7493 3.37202 22.7493 4.87202V8.52002H21.7053V4.87202ZM17.4933 8.52002V2.52002H18.5253V8.52002H17.4933ZM26.3406 8.70002C25.2246 8.70002 24.5646 8.05202 24.5646 6.82802V3.51602H23.3886V2.28002C24.2046 2.28002 24.5646 2.00402 24.5646 1.39202V0.960019C24.6966 0.960019 25.4646 0.960019 25.5966 0.960019V1.39202C25.5966 2.01602 24.9726 2.48402 23.6886 2.52002H27.1326V3.51602H25.5966V6.82802C25.5966 7.44002 25.8726 7.71602 26.3886 7.71602C26.6166 7.71602 26.9046 7.65602 27.1326 7.53602V8.52002C26.9046 8.64002 26.5806 8.70002 26.3406 8.70002ZM28.2043 8.52002V0.120019H29.2363V8.52002H28.2043ZM31.7014 11.1C30.5254 11.1 29.9014 10.152 29.9014 9.30002C29.9014 8.23202 30.7414 7.58402 31.5934 7.57202C32.0734 7.57202 32.5294 7.78802 32.8054 8.22002L30.2254 2.52002H31.3294L33.3934 7.28402L35.1814 2.52002H36.2614L33.7894 8.96402C33.3934 9.98402 32.8054 11.1 31.7014 11.1ZM30.7774 9.25202C30.7774 9.73202 31.1374 10.14 31.7014 10.14C32.3014 10.14 32.6134 9.40802 32.7694 8.96402L32.9374 8.52002H32.6734C32.5054 8.25602 32.2174 8.10002 31.8814 8.10002C31.3294 8.10002 30.7774 8.48402 30.7774 9.25202ZM37.125 8.52002V0.120019H40.3171C41.8171 0.120019 42.969 1.14002 42.969 2.66402C42.969 4.10402 41.9611 5.07602 40.641 5.18402L43.2331 8.52002H41.937L38.793 4.46402C38.421 4.00802 38.217 3.38402 38.217 2.60402H38.481C38.481 3.45602 39.309 4.28402 40.3171 4.28402C41.1691 4.28402 41.8891 3.66002 41.8891 2.72402C41.8891 1.78802 41.1691 1.16402 40.3171 1.16402H38.217V8.52002H37.125ZM46.8231 8.70002C45.0471 8.70002 43.6311 7.29602 43.6311 5.52002C43.6311 3.74402 45.0471 2.34002 46.8231 2.34002C48.8031 2.34002 49.9431 4.03202 49.7751 5.98802H44.7111C44.9151 7.00802 45.7551 7.74002 46.8231 7.74002C47.5191 7.75202 48.1311 7.48802 48.5151 7.00802L49.2711 7.60802C48.6831 8.26802 47.7951 8.70002 46.8231 8.70002ZM44.6991 5.07602H48.7431C48.6231 4.12802 47.9511 3.30002 46.8231 3.30002C45.7431 3.30002 44.8911 4.04402 44.6991 5.07602ZM51.9768 2.52002H53.7888V3.51602H52.1208V8.52002H51.0888V3.51602H50.0928V2.52002H51.7608C50.9208 2.48402 50.2608 2.05202 50.2608 1.39202C50.2608 0.588019 50.9928 0.120019 51.9528 0.120019H53.9088V1.08002H51.9528C51.4848 1.08002 51.1368 1.26002 51.1368 1.70402C51.1368 2.02802 51.4608 2.25602 51.9768 2.25602V2.52002Z" fill="white"/>
</svg>
